#!OML:ASF H:\ColoradoDance\Project 1\Capture day 1\Session 8\male.ASF
:FULLY-SPECIFIED
:DEGREES
47
upperback -5.244930 1.280440 -0.266184
rfoot 8.728370 -9.515420
lradius 98.100304
lthumb 14.997900 9.931550
rradius 105.080002
lwrist 60.928101
rhand -22.404900 17.912100
rhumerus 51.915001 0.994268 -79.976799
lowerneck -5.799760 -1.129040 2.585450
lhand -11.023400 -19.505301
ltibia 27.474300
head 3.075480 -0.811609 -0.829746
rwrist -74.746101
lfingers 7.125020
rtoes -7.822130
lowerback -1.610310 1.027650 2.196040
rfingers 7.125020
lclavicle 0.000000 -0.000000
upperneck 6.516360 -1.683420 -0.935197
rfemur 1.855250 10.556200 20.760201
thorax -4.451080 0.495149 -1.529050
rclavicle 0.000000 -0.000000
rtibia 24.015200
lfoot -3.578670 24.464100
lhumerus 55.378700 -5.884900 83.200798
rthumb 4.017800 -12.029800
root -11.940900 20.552601 -5.315240 -257.437988 -86.001099 -94.936501
ltoes -1.538170
lfemur -23.877399 -27.463699 -8.934790
48
upperback -5.168390 1.382150 -0.232948
rfoot 9.347720 -8.741580
lradius 97.072098
lthumb 14.449500 10.380900
rradius 104.466003
lwrist 61.054100
rhand -22.514500 17.998899
rhumerus 52.024200 1.207540 -79.935600
lowerneck -5.507910 -1.092640 3.134260
lhand -11.592700 -19.096100
ltibia 27.335400
head 2.938550 -0.794206 -1.017450
rwrist -74.909203
lfingers 7.125020
rtoes -8.224830
lowerback -1.611040 1.099930 2.499440
rfingers 7.125020
lclavicle -0.000000 -0.000000
upperneck 6.287660 -1.650180 -1.239540
rfemur 1.855470 11.284200 20.474701
thorax -4.361100 0.536760 -1.665710
rclavicle -0.000000 -0.000000
rtibia 23.460199
lfoot -1.090940 24.168800
lhumerus 55.533401 -5.393210 83.384697
rthumb 3.911960 -11.944900
root -11.856100 20.603300 -5.323300 -244.985992 -85.687202 -107.621002
ltoes -1.812640
lfemur -23.865700 -26.621401 -8.846990
49
upperback -5.053870 1.254180 -0.169909
rfoot 4.535830 -8.824570
lradius 95.227501
lthumb 14.556400 9.764010
rradius 102.551003
lwrist 60.195900
rhand -22.790300 17.766001
rhumerus 52.298302 0.043107 -77.957802
lowerneck -5.498470 -1.295820 3.190600
lhand -11.481800 -19.705299
ltibia 26.859501
head 2.887770 -0.932573 -0.805480
rwrist -74.166100
lfingers 7.125020
rtoes -12.975000
lowerback -1.890050 1.010260 2.152630
rfingers 7.125020
lclavicle -0.000000 0.000000
upperneck 6.154010 -1.978920 -0.521236
rfemur 1.882490 9.729140 21.292999
thorax -4.096550 0.493510 -1.397760
rclavicle -0.000000 0.000000
rtibia 24.603001
lfoot -4.682490 21.101200
lhumerus 56.365601 -6.019300 81.908798
rthumb 3.645600 -12.182600
root -11.657800 20.422100 -5.324000 -245.884003 -85.596802 -106.968002
ltoes -9.206020
lfemur -23.591400 -26.348700 -7.711310
50
upperback -4.108980 0.920432 -0.240329
rfoot -8.222560 -8.456050
lradius 86.947098
lthumb 13.046600 8.208490
rradius 93.179001
lwrist 50.329700
rhand -24.319099 21.234501
rhumerus 54.331699 -7.784540 -55.132702
lowerneck -6.317130 -0.962668 4.189630
lhand -13.048400 -21.363501
ltibia 27.124500
head 2.580120 -0.752504 -1.106360
rwrist -59.130699
lfingers 7.125020
rtoes -15.578400
lowerback -0.834224 0.729708 1.227640
rfingers 7.125020
lclavicle -0.000000 0.000000
upperneck 4.780610 -1.603320 -0.971225
rfemur -0.213944 8.701880 21.811800
thorax -3.733530 0.386085 -0.955169
rclavicle -0.000000 0.000000
rtibia 25.315599
lfoot -8.460780 22.813499
lhumerus 61.318802 1.992910 57.312801
rthumb 2.169150 -8.734250
root -10.925500 20.077700 -5.596100 -249.962997 -85.906303 -101.884003
ltoes -11.858000
lfemur -27.177999 -26.195801 -5.887350
